<svg xmlns="http://www.w3.org/2000/svg" shape-rendering="geometricPrecision" text-rendering="geometricPrecision" image-rendering="optimizeQuality" fill-rule="evenodd" clip-rule="evenodd" viewBox="0 0 500 511.61"><path fill="#0183E5" fill-rule="nonzero" d="M265.959 148.387l15.5 101.271c-45.53-4.53-96.071-15.77-138.721-45.89-47.721-33.691-86.321-91.711-98.251-191.802-.87-7.431-7.62-12.75-15.06-11.87-5.73.679-10.21 4.86-11.55 10.139C6.996 42.846 1.416 73.656.246 102.576c-3.27 79.401 26.391 144.221 70.181 193.612 43.36 48.921 100.661 82.641 153.321 100.331 20.181 6.8 39.791 11.27 57.771 13.36l-15.44 85.831c-1.32 7.34 3.57 14.38 10.91 15.691 4.07.719 8.04-.46 11-2.901l207.102-171.301c5.76-4.771 6.57-13.33 1.8-19.081l-1.54-1.59-207.062-180.392c-5.64-4.92-14.22-4.32-19.14 1.321a13.531 13.531 0 00-3.191 10.93h.001z"/></svg>